<?xml version="1.0" encoding="UTF-8"?>
<svg xmlns="http://www.w3.org/2000/svg" xmlns:xlink="http://www.w3.org/1999/xlink" width="500" height="500" viewBox="0 0 500 500">
<path fill-rule="nonzero" fill="rgb(79.6%, 23.5%, 20%)" fill-opacity="1" stroke-width="4" stroke-linecap="butt" stroke-linejoin="miter" stroke="rgb(0%, 0%, 0%)" stroke-opacity="1" stroke-miterlimit="10" d="M 25 235 L 25 195 L 65 195 L 65 235 Z M 25 235 "/>
<path fill-rule="nonzero" fill="rgb(79.6%, 23.5%, 20%)" fill-opacity="1" stroke-width="4" stroke-linecap="butt" stroke-linejoin="miter" stroke="rgb(0%, 0%, 0%)" stroke-opacity="1" stroke-miterlimit="10" d="M 25 275 L 25 235 L 65 235 L 65 275 Z M 25 275 "/>
<path fill-rule="nonzero" fill="rgb(79.6%, 23.5%, 20%)" fill-opacity="1" stroke-width="4" stroke-linecap="butt" stroke-linejoin="miter" stroke="rgb(0%, 0%, 0%)" stroke-opacity="1" stroke-miterlimit="10" d="M 25 315 L 25 275 L 65 275 L 65 315 Z M 25 315 "/>
<path fill-rule="nonzero" fill="rgb(79.6%, 23.5%, 20%)" fill-opacity="1" stroke-width="4" stroke-linecap="butt" stroke-linejoin="miter" stroke="rgb(0%, 0%, 0%)" stroke-opacity="1" stroke-miterlimit="10" d="M 25 355 L 25 315 L 65 315 L 65 355 Z M 25 355 "/>
<path fill-rule="nonzero" fill="rgb(79.6%, 23.5%, 20%)" fill-opacity="1" stroke-width="4" stroke-linecap="butt" stroke-linejoin="miter" stroke="rgb(0%, 0%, 0%)" stroke-opacity="1" stroke-miterlimit="10" d="M 25 395 L 25 355 L 65 355 L 65 395 Z M 25 395 "/>
<path fill-rule="nonzero" fill="rgb(79.6%, 23.5%, 20%)" fill-opacity="1" stroke-width="4" stroke-linecap="butt" stroke-linejoin="miter" stroke="rgb(0%, 0%, 0%)" stroke-opacity="1" stroke-miterlimit="10" d="M 25 435 L 25 395 L 65 395 L 65 435 Z M 25 435 "/>
<path fill-rule="nonzero" fill="rgb(79.6%, 23.5%, 20%)" fill-opacity="1" stroke-width="4" stroke-linecap="butt" stroke-linejoin="miter" stroke="rgb(0%, 0%, 0%)" stroke-opacity="1" stroke-miterlimit="10" d="M 25 475 L 25 435 L 65 435 L 65 475 Z M 25 475 "/>
<path fill-rule="nonzero" fill="rgb(58.4%, 34.5%, 69.8%)" fill-opacity="1" stroke-width="4" stroke-linecap="butt" stroke-linejoin="miter" stroke="rgb(0%, 0%, 0%)" stroke-opacity="1" stroke-miterlimit="10" d="M 75 235 L 75 195 L 115 195 L 115 235 Z M 75 235 "/>
<path fill-rule="nonzero" fill="rgb(58.4%, 34.5%, 69.8%)" fill-opacity="1" stroke-width="4" stroke-linecap="butt" stroke-linejoin="miter" stroke="rgb(0%, 0%, 0%)" stroke-opacity="1" stroke-miterlimit="10" d="M 115 235 L 115 195 L 155 195 L 155 235 Z M 115 235 "/>
<path fill-rule="nonzero" fill="rgb(58.4%, 34.5%, 69.8%)" fill-opacity="1" stroke-width="4" stroke-linecap="butt" stroke-linejoin="miter" stroke="rgb(0%, 0%, 0%)" stroke-opacity="1" stroke-miterlimit="10" d="M 155 235 L 155 195 L 195 195 L 195 235 Z M 155 235 "/>
<path fill-rule="nonzero" fill="rgb(58.4%, 34.5%, 69.8%)" fill-opacity="1" stroke-width="4" stroke-linecap="butt" stroke-linejoin="miter" stroke="rgb(0%, 0%, 0%)" stroke-opacity="1" stroke-miterlimit="10" d="M 195 235 L 195 195 L 235 195 L 235 235 Z M 195 235 "/>
<path fill-rule="nonzero" fill="rgb(58.4%, 34.5%, 69.8%)" fill-opacity="1" stroke-width="4" stroke-linecap="butt" stroke-linejoin="miter" stroke="rgb(0%, 0%, 0%)" stroke-opacity="1" stroke-miterlimit="10" d="M 235 235 L 235 195 L 275 195 L 275 235 Z M 235 235 "/>
<path fill-rule="nonzero" fill="rgb(58.4%, 34.5%, 69.8%)" fill-opacity="1" stroke-width="4" stroke-linecap="butt" stroke-linejoin="miter" stroke="rgb(0%, 0%, 0%)" stroke-opacity="1" stroke-miterlimit="10" d="M 275 235 L 275 195 L 315 195 L 315 235 Z M 275 235 "/>
<path fill-rule="nonzero" fill="rgb(58.4%, 34.5%, 69.8%)" fill-opacity="1" stroke-width="4" stroke-linecap="butt" stroke-linejoin="miter" stroke="rgb(0%, 0%, 0%)" stroke-opacity="1" stroke-miterlimit="10" d="M 315 235 L 315 195 L 355 195 L 355 235 Z M 315 235 "/>
<path fill-rule="nonzero" fill="rgb(58.4%, 34.5%, 69.8%)" fill-opacity="1" stroke-width="4" stroke-linecap="butt" stroke-linejoin="miter" stroke="rgb(0%, 0%, 0%)" stroke-opacity="1" stroke-miterlimit="10" d="M 355 235 L 355 195 L 395 195 L 395 235 Z M 355 235 "/>
<path fill-rule="nonzero" fill="rgb(58.4%, 34.5%, 69.8%)" fill-opacity="1" stroke-width="4" stroke-linecap="butt" stroke-linejoin="miter" stroke="rgb(0%, 0%, 0%)" stroke-opacity="1" stroke-miterlimit="10" d="M 395 235 L 395 195 L 435 195 L 435 235 Z M 395 235 "/>
<path fill-rule="nonzero" fill="rgb(58.4%, 34.5%, 69.8%)" fill-opacity="1" stroke-width="4" stroke-linecap="butt" stroke-linejoin="miter" stroke="rgb(0%, 0%, 0%)" stroke-opacity="1" stroke-miterlimit="10" d="M 435 235 L 435 195 L 475 195 L 475 235 Z M 435 235 "/>
<path fill-rule="nonzero" fill="rgb(22%, 59.6%, 14.9%)" fill-opacity="1" stroke-width="4" stroke-linecap="butt" stroke-linejoin="miter" stroke="rgb(0%, 0%, 0%)" stroke-opacity="1" stroke-miterlimit="10" d="M 41 153 L 25 185 L 65 185 L 81 153 Z M 41 153 "/>
<path fill-rule="nonzero" fill="rgb(22%, 59.6%, 14.9%)" fill-opacity="1" stroke-width="4" stroke-linecap="butt" stroke-linejoin="miter" stroke="rgb(0%, 0%, 0%)" stroke-opacity="1" stroke-miterlimit="10" d="M 57 121 L 41 153 L 81 153 L 97 121 Z M 57 121 "/>
<path fill-rule="nonzero" fill="rgb(22%, 59.6%, 14.9%)" fill-opacity="1" stroke-width="4" stroke-linecap="butt" stroke-linejoin="miter" stroke="rgb(0%, 0%, 0%)" stroke-opacity="1" stroke-miterlimit="10" d="M 73 89 L 57 121 L 97 121 L 113 89 Z M 73 89 "/>
<path fill-rule="nonzero" fill="rgb(22%, 59.6%, 14.9%)" fill-opacity="1" stroke-width="4" stroke-linecap="butt" stroke-linejoin="miter" stroke="rgb(0%, 0%, 0%)" stroke-opacity="1" stroke-miterlimit="10" d="M 89 57 L 73 89 L 113 89 L 129 57 Z M 89 57 "/>
<path fill-rule="nonzero" fill="rgb(22%, 59.6%, 14.9%)" fill-opacity="1" stroke-width="4" stroke-linecap="butt" stroke-linejoin="miter" stroke="rgb(0%, 0%, 0%)" stroke-opacity="1" stroke-miterlimit="10" d="M 105 25 L 89 57 L 129 57 L 145 25 Z M 105 25 "/>
<path fill="none" stroke-width="8" stroke-linecap="butt" stroke-linejoin="miter" stroke="rgb(22%, 59.6%, 14.9%)" stroke-opacity="1" stroke-miterlimit="10" d="M 175 25 L 178 39.273438 L 181 52.191406 L 184 63.878906 L 187 74.453125 L 190 84.019531 L 193 92.679688 L 196 100.511719 L 199 107.601562 L 202 114.015625 L 205 119.816406 L 208 125.070312 L 211 129.820312 L 214 134.121094 L 217 138.011719 L 220 141.53125 L 223 144.714844 L 226 147.597656 L 229 150.207031 L 232 152.566406 L 235 154.699219 L 238 156.632812 L 241 158.378906 L 244 159.960938 L 247 161.390625 L 250 162.6875 L 253 163.859375 L 256 164.917969 L 259 165.878906 L 262 166.746094 L 265 167.53125 L 268 168.242188 L 271 168.886719 L 274 169.46875 L 277 169.992188 L 280 170.46875 L 283 170.902344 L 286 171.292969 L 289 171.644531 L 292 171.964844 L 295 172.253906 L 298 172.515625 L 301 172.75 L 304 172.964844 L 307 173.160156 L 310 173.332031 L 313 173.492188 L 316 173.636719 L 319 173.765625 L 322 173.882812 L 325 173.988281 L 328 174.085938 L 331 174.171875 L 334 174.25 L 337 174.324219 L 340 174.386719 L 343 174.445312 L 346 174.5 L 349 174.546875 L 352 174.589844 L 355 174.628906 L 358 174.664062 L 361 174.695312 L 367 174.75 L 373 174.796875 L 376 174.816406 L 385 174.863281 L 397 174.910156 L 406 174.933594 L 409 174.9375 L 412 174.945312 L 436 174.976562 L 439 174.976562 L 442 174.980469 L 445 174.980469 L 448 174.984375 L 454 174.984375 L 457 174.988281 L 463 174.988281 L 466 174.992188 L 475 174.992188 "/>
<path fill="none" stroke-width="8" stroke-linecap="butt" stroke-linejoin="miter" stroke="rgb(25.1%, 38.8%, 84.7%)" stroke-opacity="1" stroke-miterlimit="10" d="M 175 175 L 178 157 L 181 150.785156 L 184 146.789062 L 187 144.011719 L 190 142.046875 L 193 140.660156 L 196 139.71875 L 199 139.121094 L 202 138.800781 L 205 138.703125 L 208 138.789062 L 211 139.023438 L 214 139.382812 L 217 139.839844 L 220 140.378906 L 223 140.988281 L 226 141.652344 L 229 142.359375 L 232 143.097656 L 235 143.867188 L 238 144.652344 L 241 145.453125 L 253 148.703125 L 256 149.507812 L 259 150.308594 L 262 151.097656 L 265 151.871094 L 268 152.636719 L 271 153.386719 L 274 154.121094 L 277 154.84375 L 280 155.546875 L 283 156.230469 L 286 156.902344 L 289 157.550781 L 292 158.1875 L 295 158.800781 L 298 159.402344 L 301 159.980469 L 304 160.546875 L 307 161.089844 L 310 161.621094 L 313 162.132812 L 316 162.628906 L 319 163.105469 L 322 163.570312 L 325 164.015625 L 328 164.449219 L 331 164.863281 L 334 165.265625 L 337 165.65625 L 340 166.027344 L 343 166.386719 L 346 166.734375 L 349 167.070312 L 352 167.390625 L 355 167.703125 L 358 168 L 361 168.289062 L 364 168.5625 L 367 168.828125 L 370 169.085938 L 373 169.328125 L 376 169.566406 L 379 169.792969 L 382 170.011719 L 385 170.21875 L 388 170.417969 L 391 170.613281 L 394 170.796875 L 397 170.976562 L 400 171.144531 L 403 171.308594 L 406 171.464844 L 409 171.617188 L 412 171.761719 L 415 171.898438 L 418 172.03125 L 421 172.160156 L 424 172.28125 L 427 172.398438 L 430 172.511719 L 436 172.722656 L 439 172.820312 L 442 172.914062 L 448 173.09375 L 451 173.175781 L 457 173.332031 L 463 173.472656 L 469 173.605469 L 472 173.667969 L 475 173.726562 "/>
<path fill="none" stroke-width="8" stroke-linecap="butt" stroke-linejoin="miter" stroke="rgb(79.6%, 23.5%, 20%)" stroke-opacity="1" stroke-miterlimit="10" d="M 175 175 L 178 160.074219 L 181 145.59375 L 184 131.980469 L 187 119.613281 L 190 108.8125 L 193 99.824219 L 196 92.816406 L 199 87.863281 L 202 84.957031 L 205 84.019531 L 208 84.898438 L 211 87.382812 L 214 91.234375 L 217 96.183594 L 220 101.953125 L 223 108.269531 L 226 114.882812 L 229 121.566406 L 232 128.125 L 235 134.398438 L 238 140.269531 L 241 145.65625 L 244 150.503906 L 247 154.792969 L 250 158.523438 L 253 161.722656 L 256 164.421875 L 259 166.667969 L 262 168.507812 L 265 170 L 268 171.191406 L 271 172.132812 L 274 172.863281 L 277 173.425781 L 280 173.851562 L 283 174.171875 L 286 174.410156 L 289 174.582031 L 292 174.707031 L 295 174.796875 L 298 174.863281 L 301 174.90625 L 304 174.9375 L 307 174.957031 L 310 174.972656 L 313 174.984375 L 322 174.996094 L 325 174.996094 L 328 175 L 475 175 "/>
<path fill="none" stroke-width="8" stroke-linecap="butt" stroke-linejoin="miter" stroke="rgb(0%, 0%, 0%)" stroke-opacity="1" stroke-miterlimit="10" d="M 175 175 L 475 175 "/>
<path fill-rule="nonzero" fill="rgb(100%, 100%, 100%)" fill-opacity="1" d="M 95 265 L 95 355 L 210 355 L 210 265 Z M 95 265 "/>
<path fill="none" stroke-width="4" stroke-linecap="butt" stroke-linejoin="miter" stroke="rgb(58.4%, 34.5%, 69.8%)" stroke-opacity="1" stroke-miterlimit="10" d="M 95 310 L 96.148438 308.117188 L 97.300781 306.238281 L 98.449219 304.378906 L 99.601562 302.539062 L 100.75 300.730469 L 101.898438 298.957031 L 103.050781 297.226562 L 104.199219 295.546875 L 105.351562 293.925781 L 106.5 292.367188 L 107.648438 290.878906 L 108.800781 289.464844 L 109.949219 288.132812 L 111.101562 286.882812 L 112.25 285.730469 L 113.398438 284.671875 L 114.550781 283.710938 L 115.699219 282.855469 L 116.851562 282.105469 L 118 281.46875 L 119.148438 280.941406 L 120.300781 280.53125 L 121.449219 280.238281 L 122.601562 280.058594 L 123.75 280 L 124.898438 280.058594 L 126.050781 280.238281 L 127.199219 280.53125 L 128.351562 280.941406 L 129.5 281.46875 L 130.648438 282.105469 L 131.800781 282.855469 L 132.949219 283.710938 L 134.101562 284.671875 L 135.25 285.730469 L 136.398438 286.882812 L 137.550781 288.132812 L 138.699219 289.464844 L 139.851562 290.878906 L 141 292.367188 L 142.148438 293.925781 L 143.300781 295.546875 L 144.449219 297.226562 L 145.601562 298.957031 L 146.75 300.730469 L 147.898438 302.539062 L 149.050781 304.378906 L 150.199219 306.238281 L 151.351562 308.117188 L 153.648438 311.882812 L 154.800781 313.761719 L 155.949219 315.621094 L 157.101562 317.460938 L 158.25 319.269531 L 159.398438 321.042969 L 160.550781 322.773438 L 161.699219 324.453125 L 162.851562 326.074219 L 164 327.632812 L 165.148438 329.121094 L 166.300781 330.535156 L 167.449219 331.867188 L 168.601562 333.117188 L 169.75 334.269531 L 170.898438 335.328125 L 172.050781 336.289062 L 173.199219 337.144531 L 174.351562 337.894531 L 175.5 338.53125 L 176.648438 339.058594 L 177.800781 339.46875 L 178.949219 339.761719 L 180.101562 339.941406 L 181.25 340 L 182.398438 339.941406 L 183.550781 339.761719 L 184.699219 339.46875 L 185.851562 339.058594 L 187 338.53125 L 188.148438 337.894531 L 189.300781 337.144531 L 190.449219 336.289062 L 191.601562 335.328125 L 192.75 334.269531 L 193.898438 333.117188 L 195.050781 331.867188 L 196.199219 330.535156 L 197.351562 329.121094 L 198.5 327.632812 L 199.648438 326.074219 L 200.800781 324.453125 L 201.949219 322.773438 L 203.101562 321.042969 L 204.25 319.269531 L 205.398438 317.460938 L 206.550781 315.621094 L 207.699219 313.761719 L 208.851562 311.882812 L 210 310 "/>
<path fill="none" stroke-width="4" stroke-linecap="butt" stroke-linejoin="miter" stroke="rgb(0%, 0%, 0%)" stroke-opacity="1" stroke-miterlimit="10" d="M 95 265 L 95 355 L 210 355 L 210 265 Z M 95 265 "/>
<path fill-rule="nonzero" fill="rgb(100%, 100%, 100%)" fill-opacity="1" d="M 95 365 L 95 455 L 210 455 L 210 365 Z M 95 365 "/>
<path fill="none" stroke-width="4" stroke-linecap="butt" stroke-linejoin="miter" stroke="rgb(58.4%, 34.5%, 69.8%)" stroke-opacity="1" stroke-miterlimit="10" d="M 95 410 L 96.148438 406.238281 L 97.300781 402.539062 L 98.449219 398.957031 L 99.601562 395.546875 L 100.75 392.367188 L 101.898438 389.464844 L 103.050781 386.882812 L 104.199219 384.671875 L 105.351562 382.855469 L 106.5 381.46875 L 107.648438 380.53125 L 108.800781 380.058594 L 109.949219 380.058594 L 111.101562 380.53125 L 112.25 381.46875 L 113.398438 382.855469 L 114.550781 384.671875 L 115.699219 386.882812 L 116.851562 389.464844 L 118 392.367188 L 119.148438 395.546875 L 120.300781 398.957031 L 121.449219 402.539062 L 122.601562 406.238281 L 124.898438 413.761719 L 126.050781 417.460938 L 127.199219 421.042969 L 128.351562 424.453125 L 129.5 427.632812 L 130.648438 430.535156 L 131.800781 433.117188 L 132.949219 435.328125 L 134.101562 437.144531 L 135.25 438.53125 L 136.398438 439.46875 L 137.550781 439.941406 L 138.699219 439.941406 L 139.851562 439.46875 L 141 438.53125 L 142.148438 437.144531 L 143.300781 435.328125 L 144.449219 433.117188 L 145.601562 430.535156 L 146.75 427.632812 L 147.898438 424.453125 L 149.050781 421.042969 L 150.199219 417.460938 L 151.351562 413.761719 L 153.648438 406.238281 L 154.800781 402.539062 L 155.949219 398.957031 L 157.101562 395.546875 L 158.25 392.367188 L 159.398438 389.464844 L 160.550781 386.882812 L 161.699219 384.671875 L 162.851562 382.855469 L 164 381.46875 L 165.148438 380.53125 L 166.300781 380.058594 L 167.449219 380.058594 L 168.601562 380.53125 L 169.75 381.46875 L 170.898438 382.855469 L 172.050781 384.671875 L 173.199219 386.882812 L 174.351562 389.464844 L 175.5 392.367188 L 176.648438 395.546875 L 177.800781 398.957031 L 178.949219 402.539062 L 180.101562 406.238281 L 182.398438 413.761719 L 183.550781 417.460938 L 184.699219 421.042969 L 185.851562 424.453125 L 187 427.632812 L 188.148438 430.535156 L 189.300781 433.117188 L 190.449219 435.328125 L 191.601562 437.144531 L 192.75 438.53125 L 193.898438 439.46875 L 195.050781 439.941406 L 196.199219 439.941406 L 197.351562 439.46875 L 198.5 438.53125 L 199.648438 437.144531 L 200.800781 435.328125 L 201.949219 433.117188 L 203.101562 430.535156 L 204.25 427.632812 L 205.398438 424.453125 L 206.550781 421.042969 L 207.699219 417.460938 L 208.851562 413.761719 L 210 410 "/>
<path fill="none" stroke-width="4" stroke-linecap="butt" stroke-linejoin="miter" stroke="rgb(0%, 0%, 0%)" stroke-opacity="1" stroke-miterlimit="10" d="M 95 365 L 95 455 L 210 455 L 210 365 Z M 95 365 "/>
<path fill-rule="nonzero" fill="rgb(100%, 100%, 100%)" fill-opacity="1" d="M 220 265 L 220 355 L 335 355 L 335 265 Z M 220 265 "/>
<path fill-rule="nonzero" fill="rgb(22%, 59.6%, 14.9%)" fill-opacity="1" stroke-width="0.5" stroke-linecap="butt" stroke-linejoin="miter" stroke="rgb(100%, 100%, 100%)" stroke-opacity="1" stroke-miterlimit="10" d="M 220 286.996094 L 220 355 L 234.375 355 L 234.375 286.996094 Z M 220 286.996094 "/>
<path fill-rule="nonzero" fill="rgb(22%, 59.6%, 14.9%)" fill-opacity="1" stroke-width="0.5" stroke-linecap="butt" stroke-linejoin="miter" stroke="rgb(100%, 100%, 100%)" stroke-opacity="1" stroke-miterlimit="10" d="M 234.375 334.117188 L 234.375 355 L 248.75 355 L 248.75 334.117188 Z M 234.375 334.117188 "/>
<path fill-rule="nonzero" fill="rgb(22%, 59.6%, 14.9%)" fill-opacity="1" stroke-width="0.5" stroke-linecap="butt" stroke-linejoin="miter" stroke="rgb(100%, 100%, 100%)" stroke-opacity="1" stroke-miterlimit="10" d="M 248.75 341.511719 L 248.75 355 L 263.125 355 L 263.125 341.511719 Z M 248.75 341.511719 "/>
<path fill-rule="nonzero" fill="rgb(22%, 59.6%, 14.9%)" fill-opacity="1" stroke-width="0.5" stroke-linecap="butt" stroke-linejoin="miter" stroke="rgb(100%, 100%, 100%)" stroke-opacity="1" stroke-miterlimit="10" d="M 263.125 268.503906 L 263.125 355 L 277.5 355 L 277.5 268.503906 Z M 263.125 268.503906 "/>
<path fill-rule="nonzero" fill="rgb(22%, 59.6%, 14.9%)" fill-opacity="1" stroke-width="0.5" stroke-linecap="butt" stroke-linejoin="miter" stroke="rgb(100%, 100%, 100%)" stroke-opacity="1" stroke-miterlimit="10" d="M 277.5 268.664062 L 277.5 355 L 291.875 355 L 291.875 268.664062 Z M 277.5 268.664062 "/>
<path fill-rule="nonzero" fill="rgb(22%, 59.6%, 14.9%)" fill-opacity="1" stroke-width="0.5" stroke-linecap="butt" stroke-linejoin="miter" stroke="rgb(100%, 100%, 100%)" stroke-opacity="1" stroke-miterlimit="10" d="M 291.875 291.109375 L 291.875 355 L 306.25 355 L 306.25 291.109375 Z M 291.875 291.109375 "/>
<path fill-rule="nonzero" fill="rgb(22%, 59.6%, 14.9%)" fill-opacity="1" stroke-width="0.5" stroke-linecap="butt" stroke-linejoin="miter" stroke="rgb(100%, 100%, 100%)" stroke-opacity="1" stroke-miterlimit="10" d="M 306.25 343.386719 L 306.25 355 L 320.625 355 L 320.625 343.386719 Z M 306.25 343.386719 "/>
<path fill-rule="nonzero" fill="rgb(22%, 59.6%, 14.9%)" fill-opacity="1" stroke-width="0.5" stroke-linecap="butt" stroke-linejoin="miter" stroke="rgb(100%, 100%, 100%)" stroke-opacity="1" stroke-miterlimit="10" d="M 320.625 294.398438 L 320.625 355 L 335 355 L 335 294.398438 Z M 320.625 294.398438 "/>
<path fill="none" stroke-width="4" stroke-linecap="butt" stroke-linejoin="miter" stroke="rgb(0%, 0%, 0%)" stroke-opacity="1" stroke-miterlimit="10" d="M 220 265 L 220 355 L 335 355 L 335 265 Z M 220 265 "/>
<path fill-rule="nonzero" fill="rgb(100%, 100%, 100%)" fill-opacity="1" d="M 220 365 L 220 455 L 335 455 L 335 365 Z M 220 365 "/>
<path fill-rule="nonzero" fill="rgb(22%, 59.6%, 14.9%)" fill-opacity="1" stroke-width="0.5" stroke-linecap="butt" stroke-linejoin="miter" stroke="rgb(100%, 100%, 100%)" stroke-opacity="1" stroke-miterlimit="10" d="M 220 441.285156 L 220 455 L 234.375 455 L 234.375 441.285156 Z M 220 441.285156 "/>
<path fill-rule="nonzero" fill="rgb(22%, 59.6%, 14.9%)" fill-opacity="1" stroke-width="0.5" stroke-linecap="butt" stroke-linejoin="miter" stroke="rgb(100%, 100%, 100%)" stroke-opacity="1" stroke-miterlimit="10" d="M 234.375 391.070312 L 234.375 455 L 248.75 455 L 248.75 391.070312 Z M 234.375 391.070312 "/>
<path fill-rule="nonzero" fill="rgb(22%, 59.6%, 14.9%)" fill-opacity="1" stroke-width="0.5" stroke-linecap="butt" stroke-linejoin="miter" stroke="rgb(100%, 100%, 100%)" stroke-opacity="1" stroke-miterlimit="10" d="M 248.75 380.191406 L 248.75 455 L 263.125 455 L 263.125 380.191406 Z M 248.75 380.191406 "/>
<path fill-rule="nonzero" fill="rgb(22%, 59.6%, 14.9%)" fill-opacity="1" stroke-width="0.5" stroke-linecap="butt" stroke-linejoin="miter" stroke="rgb(100%, 100%, 100%)" stroke-opacity="1" stroke-miterlimit="10" d="M 263.125 424.667969 L 263.125 455 L 277.5 455 L 277.5 424.667969 Z M 263.125 424.667969 "/>
<path fill-rule="nonzero" fill="rgb(22%, 59.6%, 14.9%)" fill-opacity="1" stroke-width="0.5" stroke-linecap="butt" stroke-linejoin="miter" stroke="rgb(100%, 100%, 100%)" stroke-opacity="1" stroke-miterlimit="10" d="M 277.5 428.804688 L 277.5 455 L 291.875 455 L 291.875 428.804688 Z M 277.5 428.804688 "/>
<path fill-rule="nonzero" fill="rgb(22%, 59.6%, 14.9%)" fill-opacity="1" stroke-width="0.5" stroke-linecap="butt" stroke-linejoin="miter" stroke="rgb(100%, 100%, 100%)" stroke-opacity="1" stroke-miterlimit="10" d="M 291.875 415.832031 L 291.875 455 L 306.25 455 L 306.25 415.832031 Z M 291.875 415.832031 "/>
<path fill-rule="nonzero" fill="rgb(22%, 59.6%, 14.9%)" fill-opacity="1" stroke-width="0.5" stroke-linecap="butt" stroke-linejoin="miter" stroke="rgb(100%, 100%, 100%)" stroke-opacity="1" stroke-miterlimit="10" d="M 306.25 449.296875 L 306.25 455 L 320.625 455 L 320.625 449.296875 Z M 306.25 449.296875 "/>
<path fill-rule="nonzero" fill="rgb(22%, 59.6%, 14.9%)" fill-opacity="1" stroke-width="0.5" stroke-linecap="butt" stroke-linejoin="miter" stroke="rgb(100%, 100%, 100%)" stroke-opacity="1" stroke-miterlimit="10" d="M 320.625 413.8125 L 320.625 455 L 335 455 L 335 413.8125 Z M 320.625 413.8125 "/>
<path fill="none" stroke-width="4" stroke-linecap="butt" stroke-linejoin="miter" stroke="rgb(0%, 0%, 0%)" stroke-opacity="1" stroke-miterlimit="10" d="M 220 365 L 220 455 L 335 455 L 335 365 Z M 220 365 "/>
<path fill-rule="nonzero" fill="rgb(100%, 100%, 100%)" fill-opacity="1" d="M 345 265 L 345 355 L 460 355 L 460 265 Z M 345 265 "/>
<path fill-rule="nonzero" fill="rgb(79.6%, 23.5%, 20%)" fill-opacity="1" d="M 362.25 284.621094 C 362.25 282.136719 359.675781 280.121094 356.5 280.121094 C 353.324219 280.121094 350.75 282.136719 350.75 284.621094 C 350.75 287.105469 353.324219 289.121094 356.5 289.121094 C 359.675781 289.121094 362.25 287.105469 362.25 284.621094 Z M 362.25 284.621094 "/>
<path fill-rule="nonzero" fill="rgb(25.1%, 38.8%, 84.7%)" fill-opacity="1" d="M 373.75 313.988281 C 373.75 311.503906 371.175781 309.488281 368 309.488281 C 364.824219 309.488281 362.25 311.503906 362.25 313.988281 C 362.25 316.476562 364.824219 318.488281 368 318.488281 C 371.175781 318.488281 373.75 316.476562 373.75 313.988281 Z M 373.75 313.988281 "/>
<path fill-rule="nonzero" fill="rgb(25.1%, 38.8%, 84.7%)" fill-opacity="1" d="M 385.25 327.519531 C 385.25 325.035156 382.675781 323.019531 379.5 323.019531 C 376.324219 323.019531 373.75 325.035156 373.75 327.519531 C 373.75 330.003906 376.324219 332.019531 379.5 332.019531 C 382.675781 332.019531 385.25 330.003906 385.25 327.519531 Z M 385.25 327.519531 "/>
<path fill-rule="nonzero" fill="rgb(79.6%, 23.5%, 20%)" fill-opacity="1" d="M 396.75 278 C 396.75 275.515625 394.175781 273.5 391 273.5 C 387.824219 273.5 385.25 275.515625 385.25 278 C 385.25 280.484375 387.824219 282.5 391 282.5 C 394.175781 282.5 396.75 280.484375 396.75 278 Z M 396.75 278 "/>
<path fill-rule="nonzero" fill="rgb(79.6%, 23.5%, 20%)" fill-opacity="1" d="M 408.25 304.558594 C 408.25 302.074219 405.675781 300.058594 402.5 300.058594 C 399.324219 300.058594 396.75 302.074219 396.75 304.558594 C 396.75 307.042969 399.324219 309.058594 402.5 309.058594 C 405.675781 309.058594 408.25 307.042969 408.25 304.558594 Z M 408.25 304.558594 "/>
<path fill-rule="nonzero" fill="rgb(25.1%, 38.8%, 84.7%)" fill-opacity="1" d="M 419.75 339.078125 C 419.75 336.59375 417.175781 334.578125 414 334.578125 C 410.824219 334.578125 408.25 336.59375 408.25 339.078125 C 408.25 341.5625 410.824219 343.578125 414 343.578125 C 417.175781 343.578125 419.75 341.5625 419.75 339.078125 Z M 419.75 339.078125 "/>
<path fill-rule="nonzero" fill="rgb(25.1%, 38.8%, 84.7%)" fill-opacity="1" d="M 431.25 326.328125 C 431.25 323.839844 428.675781 321.828125 425.5 321.828125 C 422.324219 321.828125 419.75 323.839844 419.75 326.328125 C 419.75 328.8125 422.324219 330.828125 425.5 330.828125 C 428.675781 330.828125 431.25 328.8125 431.25 326.328125 Z M 431.25 326.328125 "/>
<path fill-rule="nonzero" fill="rgb(25.1%, 38.8%, 84.7%)" fill-opacity="1" d="M 442.75 327.433594 C 442.75 324.949219 440.175781 322.933594 437 322.933594 C 433.824219 322.933594 431.25 324.949219 431.25 327.433594 C 431.25 329.917969 433.824219 331.933594 437 331.933594 C 440.175781 331.933594 442.75 329.917969 442.75 327.433594 Z M 442.75 327.433594 "/>
<path fill-rule="nonzero" fill="rgb(25.1%, 38.8%, 84.7%)" fill-opacity="1" d="M 454.25 328.875 C 454.25 326.390625 451.675781 324.375 448.5 324.375 C 445.324219 324.375 442.75 326.390625 442.75 328.875 C 442.75 331.363281 445.324219 333.375 448.5 333.375 C 451.675781 333.375 454.25 331.363281 454.25 328.875 Z M 454.25 328.875 "/>
<path fill="none" stroke-width="4" stroke-linecap="butt" stroke-linejoin="miter" stroke="rgb(0%, 0%, 0%)" stroke-opacity="1" stroke-miterlimit="10" d="M 345 265 L 345 355 L 460 355 L 460 265 Z M 345 265 "/>
<path fill-rule="nonzero" fill="rgb(100%, 100%, 100%)" fill-opacity="1" d="M 345 365 L 345 455 L 460 455 L 460 365 Z M 345 365 "/>
<path fill-rule="nonzero" fill="rgb(25.1%, 38.8%, 84.7%)" fill-opacity="1" d="M 362.25 419.808594 C 362.25 417.324219 359.675781 415.308594 356.5 415.308594 C 353.324219 415.308594 350.75 417.324219 350.75 419.808594 C 350.75 422.292969 353.324219 424.308594 356.5 424.308594 C 359.675781 424.308594 362.25 422.292969 362.25 419.808594 Z M 362.25 419.808594 "/>
<path fill-rule="nonzero" fill="rgb(25.1%, 38.8%, 84.7%)" fill-opacity="1" d="M 373.75 435.71875 C 373.75 433.234375 371.175781 431.21875 368 431.21875 C 364.824219 431.21875 362.25 433.234375 362.25 435.71875 C 362.25 438.203125 364.824219 440.21875 368 440.21875 C 371.175781 440.21875 373.75 438.203125 373.75 435.71875 Z M 373.75 435.71875 "/>
<path fill-rule="nonzero" fill="rgb(25.1%, 38.8%, 84.7%)" fill-opacity="1" d="M 385.25 415.335938 C 385.25 412.847656 382.675781 410.835938 379.5 410.835938 C 376.324219 410.835938 373.75 412.847656 373.75 415.335938 C 373.75 417.820312 376.324219 419.835938 379.5 419.835938 C 382.675781 419.835938 385.25 417.820312 385.25 415.335938 Z M 385.25 415.335938 "/>
<path fill-rule="nonzero" fill="rgb(79.6%, 23.5%, 20%)" fill-opacity="1" d="M 396.75 384.175781 C 396.75 381.6875 394.175781 379.675781 391 379.675781 C 387.824219 379.675781 385.25 381.6875 385.25 384.175781 C 385.25 386.660156 387.824219 388.675781 391 388.675781 C 394.175781 388.675781 396.75 386.660156 396.75 384.175781 Z M 396.75 384.175781 "/>
<path fill-rule="nonzero" fill="rgb(79.6%, 23.5%, 20%)" fill-opacity="1" d="M 408.25 401.546875 C 408.25 399.0625 405.675781 397.046875 402.5 397.046875 C 399.324219 397.046875 396.75 399.0625 396.75 401.546875 C 396.75 404.035156 399.324219 406.046875 402.5 406.046875 C 405.675781 406.046875 408.25 404.035156 408.25 401.546875 Z M 408.25 401.546875 "/>
<path fill-rule="nonzero" fill="rgb(25.1%, 38.8%, 84.7%)" fill-opacity="1" d="M 419.75 430.511719 C 419.75 428.027344 417.175781 426.011719 414 426.011719 C 410.824219 426.011719 408.25 428.027344 408.25 430.511719 C 408.25 432.996094 410.824219 435.011719 414 435.011719 C 417.175781 435.011719 419.75 432.996094 419.75 430.511719 Z M 419.75 430.511719 "/>
<path fill-rule="nonzero" fill="rgb(79.6%, 23.5%, 20%)" fill-opacity="1" d="M 431.25 374.980469 C 431.25 372.496094 428.675781 370.480469 425.5 370.480469 C 422.324219 370.480469 419.75 372.496094 419.75 374.980469 C 419.75 377.464844 422.324219 379.480469 425.5 379.480469 C 428.675781 379.480469 431.25 377.464844 431.25 374.980469 Z M 431.25 374.980469 "/>
<path fill-rule="nonzero" fill="rgb(25.1%, 38.8%, 84.7%)" fill-opacity="1" d="M 442.75 411.519531 C 442.75 409.035156 440.175781 407.019531 437 407.019531 C 433.824219 407.019531 431.25 409.035156 431.25 411.519531 C 431.25 414.003906 433.824219 416.019531 437 416.019531 C 440.175781 416.019531 442.75 414.003906 442.75 411.519531 Z M 442.75 411.519531 "/>
<path fill-rule="nonzero" fill="rgb(25.1%, 38.8%, 84.7%)" fill-opacity="1" d="M 454.25 435.058594 C 454.25 432.570312 451.675781 430.558594 448.5 430.558594 C 445.324219 430.558594 442.75 432.570312 442.75 435.058594 C 442.75 437.542969 445.324219 439.558594 448.5 439.558594 C 451.675781 439.558594 454.25 437.542969 454.25 435.058594 Z M 454.25 435.058594 "/>
<path fill="none" stroke-width="4" stroke-linecap="butt" stroke-linejoin="miter" stroke="rgb(0%, 0%, 0%)" stroke-opacity="1" stroke-miterlimit="10" d="M 345 365 L 345 455 L 460 455 L 460 365 Z M 345 365 "/>
</svg>
